<?xml version="1.0" ?><!DOCTYPE svg  PUBLIC '-//W3C//DTD SVG 1.1//EN'  'http://www.w3.org/Graphics/SVG/1.1/DTD/svg11.dtd'><svg enable-background="new 0 0 150 150" height="150px" id="Layer_1" version="1.1" viewBox="0 0 150 150" width="150px" xml:space="preserve" xmlns="http://www.w3.org/2000/svg" xmlns:xlink="http://www.w3.org/1999/xlink"><g><circle cx="75.017" cy="74.955" fill="#82C341" opacity="0.15" r="75"/><path d="M75.017-0.045v150c41.42,0,75-33.58,75-75.001C150.017,33.533,116.437-0.045,75.017-0.045z" fill="#82C341" opacity="0.15"/><circle cx="75.017" cy="74.954" fill="#82C341" r="65.487"/><path d="M75.017,9.467v130.975c36.168,0,65.486-29.318,65.486-65.488C140.503,38.787,111.185,9.467,75.017,9.467z" fill="#78B53C"/><g><path d="M9.601,72.027c-0.041,0.971-0.072,1.946-0.072,2.926c0,36.169,29.32,65.488,65.488,65.488v-5.852    C39.829,134.59,11.134,106.836,9.601,72.027z" fill="#78B53C"/><path d="M140.431,72.027c-1.533,34.809-30.229,62.562-65.414,62.562v5.852c36.168,0,65.486-29.318,65.486-65.488    C140.503,73.973,140.474,72.998,140.431,72.027z" fill="#6FA938"/></g></g><path clip-rule="evenodd" d="M68.493,80.469c9.312,0,17.609,2.137,24.747,6.415  c1.063,0.621,1.684,1.253,1.684,2.827c0,1.536-1.243,2.662-2.646,2.662c-0.686,0-1.156-0.241-1.799-0.632  c-6.167-3.73-13.856-5.689-22.016-5.689c-4.553,0-9.134,0.584-13.42,1.477c-0.695,0.148-1.574,0.418-2.098,0.418  c-1.616,0-2.695-1.283-2.695-2.674c0-1.792,1.031-2.678,2.313-2.921C57.821,81.157,63.056,80.469,68.493,80.469L68.493,80.469z   M67.912,66.571c11.134,0,21.911,2.772,30.378,7.846c1.422,0.816,1.942,1.848,1.942,3.364c0,1.842-1.466,3.328-3.311,3.328  c-0.93,0-1.513-0.372-2.137-0.737c-6.923-4.105-16.515-6.837-27.02-6.837c-5.39,0-10.039,0.756-13.888,1.779  c-0.83,0.229-1.296,0.478-2.064,0.478c-1.84,0-3.328-1.497-3.328-3.336c0-1.808,0.879-3.054,2.645-3.556  C55.911,67.584,60.8,66.571,67.912,66.571L67.912,66.571z M68.776,51.954c12.496,0,25.637,2.568,35.242,8.208  c1.292,0.735,2.194,1.84,2.194,3.864c0,2.319-1.868,3.986-4.017,3.986c-0.865,0-1.381-0.209-2.195-0.656  c-7.701-4.617-19.652-7.161-31.209-7.161c-5.77,0-11.633,0.586-16.998,2.042c-0.613,0.157-1.402,0.464-2.182,0.464  c-2.267,0-4.012-1.794-4.012-4.063c0-2.308,1.43-3.609,2.979-4.065C54.647,52.786,61.419,51.954,68.776,51.954L68.776,51.954z   M75.017,29.745c-23.494,0-42.552,19.049-42.552,42.55c0,23.502,19.058,42.548,42.552,42.548c23.502,0,42.551-19.046,42.551-42.548  C117.567,48.793,98.519,29.745,75.017,29.745L75.017,29.745z" fill="#e7eae9" fill-rule="evenodd"/></svg>